<svg width="52" height="18" viewBox="0 0 52 18" fill="none" xmlns="http://www.w3.org/2000/svg">
<g clip-path="url(#clip0_161_274)">
<path d="M27.1297 12.4019C26.9073 12.4094 26.694 12.3297 26.5367 12.1762C26.3794 12.0228 26.291 11.8082 26.291 11.5837C26.291 11.3592 26.3794 11.1445 26.5367 10.9912C26.694 10.8376 26.9073 10.758 27.1297 10.7655C27.5349 10.7791 27.947 10.7928 28.3596 10.8064C32.0493 10.9291 35.7469 11.0519 39.4365 11.1746C43.1285 11.2973 46.8205 11.42 50.5125 11.5428C50.9227 11.5564 51.3329 11.57 51.7432 11.5837C51.3329 11.5973 50.9227 11.6109 50.5125 11.6246C46.8205 11.7473 43.1285 11.87 39.4365 11.9928C35.7469 12.1155 32.0493 12.2382 28.3596 12.3609C27.947 12.3746 27.5349 12.3882 27.1297 12.4019Z" fill="#5F0B0B"/>
<path d="M51.7432 11.5837C51.5412 11.6898 51.3392 11.796 51.1372 11.9021C47.5015 13.8127 43.8657 15.7233 40.2299 17.6339C40.028 17.74 39.826 17.8462 39.624 17.9523C39.5261 18.0038 39.4123 18.0144 39.3067 17.9801C39.2013 17.9458 39.1127 17.8694 39.0614 17.7694C39.0101 17.6693 39.0005 17.5543 39.0358 17.4515C39.0709 17.3485 39.1479 17.266 39.2489 17.2205C39.4571 17.1266 39.6654 17.0326 39.8736 16.9387C43.6219 15.2476 47.3702 13.5566 51.1185 11.8655C51.3267 11.7716 51.5349 11.6776 51.7432 11.5837Z" fill="#5F0B0B"/>
<path d="M26.8387 6.39928C26.6163 6.39184 26.4029 6.47144 26.2457 6.62502C26.0884 6.77834 26 6.99295 26 7.21746C26 7.44197 26.0884 7.65666 26.2457 7.80999C26.4029 7.96356 26.6163 8.04317 26.8387 8.03564C27.2439 8.02206 27.6559 8.0084 28.0686 7.99473C31.7582 7.87201 35.4558 7.74928 39.1454 7.62655C42.8374 7.50383 46.5294 7.3811 50.2214 7.25837C50.6316 7.24479 51.0419 7.23112 51.4521 7.21746C51.0419 7.20388 50.6316 7.19022 50.2214 7.17655C46.5294 7.05382 42.8374 6.9311 39.1454 6.80837C35.4558 6.68564 31.7582 6.56292 28.0686 6.44019C27.6559 6.42661 27.2439 6.41294 26.8387 6.39928Z" fill="#5F0B0B"/>
<path d="M51.4523 7.21728C51.3023 7.11158 51.1524 7.00587 51.0024 6.90016C48.3032 4.99723 45.604 3.0943 42.9047 1.19129C42.7548 1.08559 42.6048 0.979877 42.4549 0.874168C42.3647 0.810513 42.2535 0.785641 42.1444 0.806995C42.0354 0.828186 41.9374 0.893886 41.8733 0.98765C41.8093 1.08141 41.7848 1.1949 41.8066 1.30126C41.8284 1.4077 41.8948 1.49819 41.9896 1.55498C42.1473 1.64931 42.3051 1.74365 42.4627 1.83807C45.3015 3.53678 48.1403 5.23548 50.9792 6.93419C51.1368 7.02853 51.2945 7.12295 51.4523 7.21728Z" fill="#5F0B0B"/>
</g>
<g clip-path="url(#clip1_161_274)">
<path d="M24.8703 12.4019C25.0927 12.4094 25.306 12.3297 25.4633 12.1762C25.6206 12.0228 25.709 11.8082 25.709 11.5837C25.709 11.3592 25.6206 11.1445 25.4633 10.9912C25.306 10.8376 25.0927 10.758 24.8703 10.7655C24.4651 10.7791 24.053 10.7928 23.6404 10.8064C19.9507 10.9291 16.2531 11.0519 12.5635 11.1746C8.87153 11.2973 5.17951 11.42 1.48751 11.5428C1.07728 11.5564 0.667058 11.57 0.256836 11.5837C0.667058 11.5973 1.07728 11.6109 1.48751 11.6246C5.17951 11.7473 8.87153 11.87 12.5635 11.9928C16.2531 12.1155 19.9507 12.2382 23.6404 12.3609C24.053 12.3746 24.4651 12.3882 24.8703 12.4019Z" fill="#5F0B0B"/>
<path d="M0.256836 11.5837C0.458821 11.6898 0.660807 11.796 0.862795 11.9021C4.49854 13.8127 8.13428 15.7233 11.7701 17.6339C11.972 17.74 12.174 17.8462 12.376 17.9523C12.4739 18.0038 12.5877 18.0144 12.6933 17.9801C12.7987 17.9458 12.8873 17.8694 12.9386 17.7694C12.9899 17.6693 12.9995 17.5543 12.9642 17.4515C12.9291 17.3485 12.8521 17.266 12.7511 17.2205C12.5429 17.1266 12.3346 17.0326 12.1264 16.9387C8.37808 15.2476 4.62982 13.5566 0.881549 11.8655C0.67331 11.7716 0.465073 11.6776 0.256836 11.5837Z" fill="#5F0B0B"/>
<path d="M25.1613 6.39928C25.3837 6.39184 25.5971 6.47144 25.7543 6.62502C25.9116 6.77834 26 6.99295 26 7.21746C26 7.44197 25.9116 7.65666 25.7543 7.80999C25.5971 7.96356 25.3837 8.04317 25.1613 8.03564C24.7561 8.02206 24.3441 8.0084 23.9314 7.99473C20.2418 7.87201 16.5442 7.74928 12.8546 7.62655C9.16257 7.50383 5.47057 7.3811 1.77857 7.25837C1.36835 7.24479 0.958141 7.23112 0.54793 7.21746C0.958141 7.20388 1.36835 7.19022 1.77857 7.17655C5.47057 7.05382 9.16257 6.9311 12.8546 6.80837C16.5442 6.68564 20.2418 6.56292 23.9314 6.44019C24.3441 6.42661 24.7561 6.41294 25.1613 6.39928Z" fill="#5F0B0B"/>
<path d="M0.547712 7.21728C0.697674 7.11158 0.847635 7.00587 0.997596 6.90016C3.69682 4.99723 6.39604 3.0943 9.09526 1.19129C9.24522 1.08559 9.39518 0.979877 9.54514 0.874168C9.6353 0.810513 9.74651 0.785641 9.85563 0.806995C9.96458 0.828186 10.0626 0.893886 10.1267 0.98765C10.1907 1.08141 10.2152 1.1949 10.1934 1.30126C10.1716 1.4077 10.1052 1.49819 10.0104 1.55498C9.85269 1.64931 9.69493 1.74365 9.53725 1.83807C6.69847 3.53678 3.85969 5.23548 1.02083 6.93419C0.863152 7.02853 0.705474 7.12295 0.547712 7.21728Z" fill="#5F0B0B"/>
</g>
<defs>
<clipPath id="clip0_161_274">
<rect width="18" height="26" fill="white" transform="translate(26 18) rotate(-90)"/>
</clipPath>
<clipPath id="clip1_161_274">
<rect width="18" height="26" fill="white" transform="matrix(4.56119e-08 -1 -1 -4.18901e-08 26 18)"/>
</clipPath>
</defs>
</svg>
